REM DIRINDEX 1\6,1\2\7,1\2\8,1\2\9,1\3\10,1\3\11,1\4\12,1\4\13,1\4\14,1\5\15,1\5\16,1\5\17
REM DIRNAME folder01,folder02,folder03,folder04,folder05,folder06,folder07,folder08,folder09,folder10,folder11,folder12,folder13,folder14,folder15,folder16,folder17
TITLE ""
FILE "P2Q_t_1069-1085.mp3" MP3
  TRACK 01 AUDIO
    TITLE "10:cjc040_3794"
    INDEX 01 00:00:00
  TRACK 02 AUDIO
    TITLE "0:"
    INDEX 01 00:01:11
  TRACK 03 AUDIO
    TITLE "11:cjc040_3795"
    INDEX 01 00:01:68
  TRACK 04 AUDIO
    TITLE "0:"
    INDEX 01 00:04:11
  TRACK 05 AUDIO
    TITLE "10:cjc040_3796"
    INDEX 01 00:04:60
  TRACK 06 AUDIO
    TITLE "0:"
    INDEX 01 00:06:26
  TRACK 07 AUDIO
    TITLE "11:cjc040_3797"
    INDEX 01 00:07:07
  TRACK 08 AUDIO
    TITLE "0:"
    INDEX 01 00:09:47
  TRACK 09 AUDIO
    TITLE "10:cjc040_3798"
    INDEX 01 00:10:21
  TRACK 10 AUDIO
    TITLE "0:"
    INDEX 01 00:11:50
  TRACK 11 AUDIO
    TITLE "11:cjc040_3799"
    INDEX 01 00:12:30
  TRACK 12 AUDIO
    TITLE "0:"
    INDEX 01 00:13:65
  TRACK 13 AUDIO
    TITLE "10:cjc040_3800"
    INDEX 01 00:14:43
  TRACK 14 AUDIO
    TITLE "0:"
    INDEX 01 00:15:50
  TRACK 15 AUDIO
    TITLE "11:cjc040_3801"
    INDEX 01 00:16:26
  TRACK 16 AUDIO
    TITLE "0:"
    INDEX 01 00:19:50
  TRACK 17 AUDIO
    TITLE "10:cjc040_3802"
    INDEX 01 00:20:28
  TRACK 18 AUDIO
    TITLE "0:"
    INDEX 01 00:21:64
  TRACK 19 AUDIO
    TITLE "11:cjc040_3803"
    INDEX 01 00:22:46
  TRACK 20 AUDIO
    TITLE "0:"
    INDEX 01 00:25:03
  TRACK 21 AUDIO
    TITLE "10:cjc040_3804"
    INDEX 01 00:25:58
  TRACK 22 AUDIO
    TITLE "0:"
    INDEX 01 00:27:02
  TRACK 23 AUDIO
    TITLE "11:cjc040_3805"
    INDEX 01 00:27:57
  TRACK 24 AUDIO
    TITLE "0:"
    INDEX 01 00:29:29
  TRACK 25 AUDIO
    TITLE "10:cjc040_3806"
    INDEX 01 00:30:12
  TRACK 26 AUDIO
    TITLE "0:"
    INDEX 01 00:31:41
  TRACK 27 AUDIO
    TITLE "11:cjc040_3807"
    INDEX 01 00:32:19
  TRACK 28 AUDIO
    TITLE "0:"
    INDEX 01 00:33:44
  TRACK 29 AUDIO
    TITLE "10:cjc040_3808"
    INDEX 01 00:34:28
  TRACK 30 AUDIO
    TITLE "0:"
    INDEX 01 00:35:59
  TRACK 31 AUDIO
    TITLE "11:cjc040_3809"
    INDEX 01 00:36:35
  TRACK 32 AUDIO
    TITLE "0:"
    INDEX 01 00:38:59
  TRACK 33 AUDIO
    TITLE "10:cjc040_3810"
    INDEX 01 00:39:39
  TRACK 34 AUDIO
    TITLE "0:"
    INDEX 01 00:41:04
  TRACK 35 AUDIO
    TITLE "11:cjc040_3811"
    INDEX 01 00:41:53
  TRACK 36 AUDIO
    TITLE "0:"
    INDEX 01 00:42:68
  TRACK 37 AUDIO
    TITLE "10:cjc040_3812"
    INDEX 01 00:43:46
  TRACK 38 AUDIO
    TITLE "0:"
    INDEX 01 00:45:14
  TRACK 39 AUDIO
    TITLE "11:cjc040_3813"
    INDEX 01 00:45:65
  TRACK 40 AUDIO
    TITLE "0:"
    INDEX 01 00:48:10
  TRACK 41 AUDIO
    TITLE "10:cjc040_3814"
    INDEX 01 00:48:63
  TRACK 42 AUDIO
    TITLE "0:"
    INDEX 01 00:50:05
  TRACK 43 AUDIO
    TITLE "11:cjc040_3815"
    INDEX 01 00:50:62
  TRACK 44 AUDIO
    TITLE "0:"
    INDEX 01 00:53:04
  TRACK 45 AUDIO
    TITLE "10:cjc040_3816"
    INDEX 01 00:53:58
  TRACK 46 AUDIO
    TITLE "0:"
    INDEX 01 00:55:22
  TRACK 47 AUDIO
    TITLE "11:cjc040_3817"
    INDEX 01 00:56:02
  TRACK 48 AUDIO
    TITLE "0:"
    INDEX 01 00:57:62
  TRACK 49 AUDIO
    TITLE "10:cjc040_3818"
    INDEX 01 00:58:40
  TRACK 50 AUDIO
    TITLE "0:"
    INDEX 01 00:59:65
  TRACK 51 AUDIO
    TITLE "11:cjc040_3819"
    INDEX 01 01:00:45
  TRACK 52 AUDIO
    TITLE "0:"
    INDEX 01 01:02:65
  TRACK 53 AUDIO
    TITLE "10:cjc040_3820"
    INDEX 01 01:03:41
  TRACK 54 AUDIO
    TITLE "0:"
    INDEX 01 01:04:74
  TRACK 55 AUDIO
    TITLE "11:cjc040_3821"
    INDEX 01 01:05:46
  TRACK 56 AUDIO
    TITLE "0:"
    INDEX 01 01:06:65
  TRACK 57 AUDIO
    TITLE "10:cjc040_3822"
    INDEX 01 01:07:45
  TRACK 58 AUDIO
    TITLE "0:"
    INDEX 01 01:08:62
  TRACK 59 AUDIO
    TITLE "11:cjc040_3823"
    INDEX 01 01:09:44
  TRACK 60 AUDIO
    TITLE "0:"
    INDEX 01 01:11:41
  TRACK 61 AUDIO
    TITLE "10:cjc040_3824"
    INDEX 01 01:12:21
  TRACK 62 AUDIO
    TITLE "0:"
    INDEX 01 01:13:40
  TRACK 63 AUDIO
    TITLE "11:cjc040_3825"
    INDEX 01 01:14:23
  TRACK 64 AUDIO
    TITLE "0:"
    INDEX 01 01:16:34
  TRACK 65 AUDIO
    TITLE "10:cjc040_3826"
    INDEX 01 01:17:10
  TRACK 66 AUDIO
    TITLE "0:"
    INDEX 01 01:18:25
  TRACK 67 AUDIO
    TITLE "11:cjc040_3827"
    INDEX 01 01:19:09
  TRACK 68 AUDIO
    TITLE "0:"
    INDEX 01 01:21:14
